<?xml version="1.0" encoding="UTF-8"?>
<svg width="156.75mm" height="209mm" version="1.1" viewBox="0 0 156.75 209" xmlns="http://www.w3.org/2000/svg">
 <rect width="156.75" height="209" fill="#e6e6e6"/>
 <g stroke="#fff" stroke-width=".223">
  <path d="m0 8h156.75"/>
  <path d="m0 16h156.75"/>
  <path d="m0 24h156.75"/>
  <path d="m0 32h156.75"/>
  <path d="m0 40h156.75"/>
  <path d="m0 48h156.75"/>
  <path d="m0 56h156.75"/>
  <path d="m0 64h156.75"/>
  <path d="m0 72h156.75"/>
  <path d="m0 80h156.75"/>
  <path d="m0 88h156.75"/>
  <path d="m0 96h156.75"/>
  <path d="m0 104h156.75"/>
  <path d="m0 112h156.75"/>
  <path d="m0 120h156.75"/>
  <path d="m0 128h156.75"/>
  <path d="m0 136h156.75"/>
  <path d="m0 144h156.75"/>
  <path d="m0 152h156.75"/>
  <path d="m0 160h156.75"/>
  <path d="m0 168h156.75"/>
  <path d="m0 176h156.75"/>
  <path d="m0 184h156.75"/>
  <path d="m0 192h156.75"/>
  <path d="m0 200h156.75"/>
  <path d="m0 208h156.75"/>
 </g>
</svg>
