<?xml version="1.0" encoding="UTF-8" standalone="no"?>
<svg
   width="1404pt"
   height="1872pt"
   version="1.1"
   viewBox="0 0 1404 1872"
   id="svg72"
   sodipodi:docname="Whitelines_lines.svg"
   inkscape:version="1.3 (0e150ed6c4, 2023-07-21)"
   xmlns:inkscape="http://www.inkscape.org/namespaces/inkscape"
   xmlns:sodipodi="http://sodipodi.sourceforge.net/DTD/sodipodi-0.dtd"
   xmlns="http://www.w3.org/2000/svg"
   xmlns:svg="http://www.w3.org/2000/svg">
  <defs
     id="defs72" />
  <sodipodi:namedview
     id="namedview72"
     pagecolor="#ffffff"
     bordercolor="#666666"
     borderopacity="1.0"
     inkscape:showpageshadow="2"
     inkscape:pageopacity="0.0"
     inkscape:pagecheckerboard="0"
     inkscape:deskcolor="#d1d1d1"
     inkscape:document-units="pt"
     inkscape:zoom="0.38501603"
     inkscape:cx="936.32466"
     inkscape:cy="1248"
     inkscape:window-width="1920"
     inkscape:window-height="1137"
     inkscape:window-x="1358"
     inkscape:window-y="-8"
     inkscape:window-maximized="1"
     inkscape:current-layer="svg72" />
  <rect
     width="1404"
     height="1872.0001"
     fill="#d0d0d0"
     id="rect1"
     x="0"
     y="0"
     style="stroke-width:8.95695" />
  <g
     stroke="#ffffff"
     stroke-width="0.223"
     id="g26"
     transform="scale(8.9569377)">
    <path
       d="M 0,8 H 156.75"
       id="path1" />
    <path
       d="M 0,16 H 156.75"
       id="path2" />
    <path
       d="M 0,24 H 156.75"
       id="path3" />
    <path
       d="M 0,32 H 156.75"
       id="path4" />
    <path
       d="M 0,40 H 156.75"
       id="path5" />
    <path
       d="M 0,48 H 156.75"
       id="path6" />
    <path
       d="M 0,56 H 156.75"
       id="path7" />
    <path
       d="M 0,64 H 156.75"
       id="path8" />
    <path
       d="M 0,72 H 156.75"
       id="path9" />
    <path
       d="M 0,80 H 156.75"
       id="path10" />
    <path
       d="M 0,88 H 156.75"
       id="path11" />
    <path
       d="M 0,96 H 156.75"
       id="path12" />
    <path
       d="M 0,104 H 156.75"
       id="path13" />
    <path
       d="M 0,112 H 156.75"
       id="path14" />
    <path
       d="M 0,120 H 156.75"
       id="path15" />
    <path
       d="M 0,128 H 156.75"
       id="path16" />
    <path
       d="M 0,136 H 156.75"
       id="path17" />
    <path
       d="M 0,144 H 156.75"
       id="path18" />
    <path
       d="M 0,152 H 156.75"
       id="path19" />
    <path
       d="M 0,160 H 156.75"
       id="path20" />
    <path
       d="M 0,168 H 156.75"
       id="path21" />
    <path
       d="M 0,176 H 156.75"
       id="path22" />
    <path
       d="M 0,184 H 156.75"
       id="path23" />
    <path
       d="M 0,192 H 156.75"
       id="path24" />
    <path
       d="M 0,200 H 156.75"
       id="path25" />
    <path
       d="M 0,208 H 156.75"
       id="path26" />
  </g>
</svg>
