<?xml version="1.0" encoding="UTF-8" standalone="no"?>
<svg
   width="1404pt"
   height="1872pt"
   version="1.1"
   viewBox="0 0 1404 1872"
   id="svg72"
   sodipodi:docname="Whitelines_squares.svg"
   inkscape:version="1.3 (0e150ed6c4, 2023-07-21)"
   xmlns:inkscape="http://www.inkscape.org/namespaces/inkscape"
   xmlns:sodipodi="http://sodipodi.sourceforge.net/DTD/sodipodi-0.dtd"
   xmlns="http://www.w3.org/2000/svg"
   xmlns:svg="http://www.w3.org/2000/svg">
  <defs
     id="defs72" />
  <sodipodi:namedview
     id="namedview72"
     pagecolor="#ffffff"
     bordercolor="#666666"
     borderopacity="1.0"
     inkscape:showpageshadow="2"
     inkscape:pageopacity="0.0"
     inkscape:pagecheckerboard="0"
     inkscape:deskcolor="#d1d1d1"
     inkscape:document-units="pt"
     inkscape:zoom="0.27224744"
     inkscape:cx="598.72004"
     inkscape:cy="1449.0494"
     inkscape:window-width="1920"
     inkscape:window-height="1137"
     inkscape:window-x="1358"
     inkscape:window-y="-8"
     inkscape:window-maximized="1"
     inkscape:current-layer="g74" />
  <rect
     width="1403.9994"
     height="1871.9991"
     fill="#d0d0d0"
     id="rect1"
     x="0.00064635184"
     y="0.00070916011"
     style="stroke-width:8.95694" />
  <g
     stroke="#ffffff"
     stroke-width="0.223"
     id="g74"
     transform="matrix(8.9569332,0,0,8.9569332,7.0938784e-4,7.0938784e-4)">
    <path
       d="M 4.9999234,-7.9199858e-5 V 209.00003"
       id="path2" />
    <path
       d="M 9.999926,-7.9199858e-5 V 209.00003"
       id="path3" />
    <path
       d="M 14.999929,-7.9199858e-5 V 209.00003"
       id="path4" />
    <path
       d="M 19.999931,-7.9199858e-5 V 209.00003"
       id="path5" />
    <path
       d="M 24.999934,-7.9199858e-5 V 209.00003"
       id="path6" />
    <path
       d="M 29.999937,-7.9199858e-5 V 209.00003"
       id="path7" />
    <path
       d="M 34.999939,-7.9199858e-5 V 209.00003"
       id="path8" />
    <path
       d="M 39.999942,-7.9199858e-5 V 209.00003"
       id="path9" />
    <path
       d="M 44.999944,-7.9199858e-5 V 209.00003"
       id="path10" />
    <path
       d="M 49.999947,-7.9199858e-5 V 209.00003"
       id="path11" />
    <path
       d="M 54.99995,-7.9199858e-5 V 209.00003"
       id="path12" />
    <path
       d="M 59.999952,-7.9199858e-5 V 209.00003"
       id="path13" />
    <path
       d="M 64.999955,-7.9199858e-5 V 209.00003"
       id="path14" />
    <path
       d="M 69.999957,-7.9199858e-5 V 209.00003"
       id="path15" />
    <path
       d="M 74.99996,-7.9199858e-5 V 209.00003"
       id="path16" />
    <path
       d="M 79.999962,-7.9199858e-5 V 209.00003"
       id="path17" />
    <path
       d="M 84.999965,-7.9199858e-5 V 209.00003"
       id="path18" />
    <path
       d="M 89.999968,-7.9199858e-5 V 209.00003"
       id="path19" />
    <path
       d="M 94.99997,-7.9199858e-5 V 209.00003"
       id="path20" />
    <path
       d="M 99.999973,-7.9199858e-5 V 209.00003"
       id="path21" />
    <path
       d="M 104.99997,-7.9199858e-5 V 209.00003"
       id="path22" />
    <path
       d="M 109.99998,-7.9199858e-5 V 209.00003"
       id="path23" />
    <path
       d="M 114.99998,-7.9199858e-5 V 209.00003"
       id="path24" />
    <path
       d="M 119.99998,-7.9199858e-5 V 209.00003"
       id="path25" />
    <path
       d="M 124.99998,-7.9199858e-5 V 209.00003"
       id="path26" />
    <path
       d="M 129.99999,-7.9199858e-5 V 209.00003"
       id="path27" />
    <path
       d="M 134.99999,-7.9199858e-5 V 209.00003"
       id="path28" />
    <path
       d="M 139.99999,-7.9199858e-5 V 209.00003"
       id="path29" />
    <path
       d="M 145,-7.9199858e-5 V 209.00003"
       id="path30" />
    <path
       d="M 150,-7.9199858e-5 V 209.00003"
       id="path31" />
    <path
       d="M 155,-7.9199858e-5 V 209.00003"
       id="path32" />
    <path
       d="M -7.9199858e-5,4.9999234 H 156.75"
       id="path34" />
    <path
       d="M -7.9199858e-5,9.999926 H 156.75"
       id="path35" />
    <path
       d="M -7.9199858e-5,14.999929 H 156.75"
       id="path36" />
    <path
       d="M -7.9199858e-5,19.999931 H 156.75"
       id="path37" />
    <path
       d="M -7.9199858e-5,24.999934 H 156.75"
       id="path38" />
    <path
       d="M -7.9199858e-5,29.999937 H 156.75"
       id="path39" />
    <path
       d="M -7.9199858e-5,34.999939 H 156.75"
       id="path40" />
    <path
       d="M -7.9199858e-5,39.999942 H 156.75"
       id="path41" />
    <path
       d="M -7.9199858e-5,44.999944 H 156.75"
       id="path42" />
    <path
       d="M -7.9199858e-5,49.999947 H 156.75"
       id="path43" />
    <path
       d="M -7.9199858e-5,54.99995 H 156.75"
       id="path44" />
    <path
       d="M -7.9199858e-5,59.999952 H 156.75"
       id="path45" />
    <path
       d="M -7.9199858e-5,64.999955 H 156.75"
       id="path46" />
    <path
       d="M -7.9199858e-5,69.999957 H 156.75"
       id="path47" />
    <path
       d="M -7.9199858e-5,74.99996 H 156.75"
       id="path48" />
    <path
       d="M -7.9199858e-5,79.999962 H 156.75"
       id="path49" />
    <path
       d="M -7.9199858e-5,84.999965 H 156.75"
       id="path50" />
    <path
       d="M -7.9199858e-5,89.999968 H 156.75"
       id="path51" />
    <path
       d="M -7.9199858e-5,94.99997 H 156.75"
       id="path52" />
    <path
       d="M -7.9199858e-5,99.999973 H 156.75"
       id="path53" />
    <path
       d="M -7.9199858e-5,104.99997 H 156.75"
       id="path54" />
    <path
       d="M -7.9199858e-5,109.99998 H 156.75"
       id="path55" />
    <path
       d="M -7.9199858e-5,114.99998 H 156.75"
       id="path56" />
    <path
       d="M -7.9199858e-5,119.99998 H 156.75"
       id="path57" />
    <path
       d="M -7.9199858e-5,124.99998 H 156.75"
       id="path58" />
    <path
       d="M -7.9199858e-5,129.99999 H 156.75"
       id="path59" />
    <path
       d="M -7.9199858e-5,134.99999 H 156.75"
       id="path60" />
    <path
       d="M -7.9199858e-5,139.99999 H 156.75"
       id="path61" />
    <path
       d="M -7.9199858e-5,145 H 156.75"
       id="path62" />
    <path
       d="M -7.9199858e-5,150 H 156.75"
       id="path63" />
    <path
       d="M -7.9199858e-5,155 H 156.75"
       id="path64" />
    <path
       d="M -7.9199858e-5,160 H 156.75"
       id="path65" />
    <path
       d="M -7.9199858e-5,165.00001 H 156.75"
       id="path66" />
    <path
       d="M -7.9199858e-5,170.00001 H 156.75"
       id="path67" />
    <path
       d="M -7.9199858e-5,175.00001 H 156.75"
       id="path68" />
    <path
       d="M -7.9199858e-5,180.00001 H 156.75"
       id="path69" />
    <path
       d="M -7.9199858e-5,185.00002 H 156.75"
       id="path70" />
    <path
       d="M -7.9199858e-5,190.00002 H 156.75"
       id="path71" />
    <path
       d="M -7.9199858e-5,195.00002 H 156.75"
       id="path72" />
    <path
       d="M -7.9199858e-5,200.00002 H 156.75"
       id="path73" />
    <path
       d="M -7.9199858e-5,205.00003 H 156.75"
       id="path74" />
  </g>
</svg>
