<?xml version="1.0" encoding="UTF-8"?>
<svg width="156.75mm" height="209mm" version="1.1" viewBox="0 0 156.75 209" xmlns="http://www.w3.org/2000/svg">
 <rect width="156.75" height="209" fill="#d0d0d0"/>
 <g stroke="#fff" stroke-width=".223">
  <path d="m0 0v209"/>
  <path d="m5 0v209"/>
  <path d="m10 0v209"/>
  <path d="m15 0v209"/>
  <path d="m20 0v209"/>
  <path d="m25 0v209"/>
  <path d="m30 0v209"/>
  <path d="m35 0v209"/>
  <path d="m40 0v209"/>
  <path d="m45 0v209"/>
  <path d="m50 0v209"/>
  <path d="m55 0v209"/>
  <path d="m60 0v209"/>
  <path d="m65 0v209"/>
  <path d="m70 0v209"/>
  <path d="m75 0v209"/>
  <path d="m80 0v209"/>
  <path d="m85 0v209"/>
  <path d="m90 0v209"/>
  <path d="m95 0v209"/>
  <path d="m100 0v209"/>
  <path d="m105 0v209"/>
  <path d="m110 0v209"/>
  <path d="m115 0v209"/>
  <path d="m120 0v209"/>
  <path d="m125 0v209"/>
  <path d="m130 0v209"/>
  <path d="m135 0v209"/>
  <path d="m140 0v209"/>
  <path d="m145 0v209"/>
  <path d="m150 0v209"/>
  <path d="m155 0v209"/>
  <path d="m0 0h156.75"/>
  <path d="m0 5h156.75"/>
  <path d="m0 10h156.75"/>
  <path d="m0 15h156.75"/>
  <path d="m0 20h156.75"/>
  <path d="m0 25h156.75"/>
  <path d="m0 30h156.75"/>
  <path d="m0 35h156.75"/>
  <path d="m0 40h156.75"/>
  <path d="m0 45h156.75"/>
  <path d="m0 50h156.75"/>
  <path d="m0 55h156.75"/>
  <path d="m0 60h156.75"/>
  <path d="m0 65h156.75"/>
  <path d="m0 70h156.75"/>
  <path d="m0 75h156.75"/>
  <path d="m0 80h156.75"/>
  <path d="m0 85h156.75"/>
  <path d="m0 90h156.75"/>
  <path d="m0 95h156.75"/>
  <path d="m0 100h156.75"/>
  <path d="m0 105h156.75"/>
  <path d="m0 110h156.75"/>
  <path d="m0 115h156.75"/>
  <path d="m0 120h156.75"/>
  <path d="m0 125h156.75"/>
  <path d="m0 130h156.75"/>
  <path d="m0 135h156.75"/>
  <path d="m0 140h156.75"/>
  <path d="m0 145h156.75"/>
  <path d="m0 150h156.75"/>
  <path d="m0 155h156.75"/>
  <path d="m0 160h156.75"/>
  <path d="m0 165h156.75"/>
  <path d="m0 170h156.75"/>
  <path d="m0 175h156.75"/>
  <path d="m0 180h156.75"/>
  <path d="m0 185h156.75"/>
  <path d="m0 190h156.75"/>
  <path d="m0 195h156.75"/>
  <path d="m0 200h156.75"/>
  <path d="m0 205h156.75"/>
 </g>
</svg>
